HIERARCHY
ROOT Hips
{
	OFFSET 0.000000 0.000000 0.000000 
	CHANNELS 6 Xposition Yposition Zposition Yrotation Xrotation Zrotation
	JOINT Spine
	{
		OFFSET 0.000000 0.072080 0.012321 
		CHANNELS 3 Xrotation Yrotation Zrotation
		JOINT Spine1
		{
			OFFSET 0.000000 0.126984 -0.001294 
			CHANNELS 3 Xrotation Yrotation Zrotation
			JOINT Spine2
			{
				OFFSET 0.000000 0.106559 -0.010096 
				CHANNELS 3 Xrotation Yrotation Zrotation
				JOINT Neck
				{
					OFFSET 0.000000 0.108417 -0.034017 
					CHANNELS 3 Xrotation Yrotation Zrotation
					JOINT Neck1
					{
						OFFSET 0.000000 0.033906 0.007241 
						CHANNELS 3 Xrotation Yrotation Zrotation
						JOINT Head
						{
							OFFSET 0.000000 0.031458 0.006707 
							CHANNELS 3 Xrotation Yrotation Zrotation
							End Site
							{
								OFFSET 0.000000 0.179920 0.000962 
							}
						}
					}
				}
				JOINT LeftShoulder
				{
					OFFSET 0.048002 0.079586 -0.029634 
					CHANNELS 3 Zrotation Xrotation Yrotation
					JOINT LeftArm
					{
						OFFSET 0.096243 -0.008695 -0.014012 
						CHANNELS 3 Zrotation Xrotation Yrotation
						JOINT LeftForeArm
						{
							OFFSET 0.216305 0.000000 0.000000 
							CHANNELS 3 Xrotation Zrotation Yrotation
							JOINT LeftHand
							{
								OFFSET 0.217764 0.000000 0.000000 
								CHANNELS 3 Zrotation Yrotation Xrotation
								JOINT LeftHandThumb1
								{
									OFFSET 0.018582 -0.007835 0.020476 
									CHANNELS 3 Zrotation Xrotation Yrotation
									JOINT LeftHandThumb2
									{
										OFFSET 0.026269 -0.007835 0.022186 
										CHANNELS 3 Zrotation Xrotation Yrotation
										JOINT LeftHandThumb3
										{
											OFFSET 0.035170 -0.010504 0.017018 
											CHANNELS 3 Zrotation Xrotation Yrotation
											End Site
											{
												OFFSET 0.020312 -0.007813 0.007813 
											}
										}
									}
								}
								JOINT LeftHandMiddle1
								{
									OFFSET 0.081749 0.004803 0.003358 
									CHANNELS 3 Zrotation Xrotation Yrotation
									JOINT LeftHandMiddle2
									{
										OFFSET 0.045251 0.000000 0.000000 
										CHANNELS 3 Zrotation Xrotation Yrotation
										JOINT LeftHandMiddle3
										{
											OFFSET 0.029009 0.000000 0.000000 
											CHANNELS 3 Zrotation Xrotation Yrotation
											End Site
											{
												OFFSET 0.017969 0.000000 0.000000 
											}
										}
									}
								}
								JOINT LeftHandIndex1
								{
									OFFSET 0.081207 0.004803 0.021137 
									CHANNELS 3 Zrotation Xrotation Yrotation
									JOINT LeftHandIndex2
									{
										OFFSET 0.043354 0.000000 0.000000 
										CHANNELS 3 Zrotation Xrotation Yrotation
										JOINT LeftHandIndex3
										{
											OFFSET 0.026493 0.000000 0.000000 
											CHANNELS 3 Zrotation Xrotation Yrotation
											End Site
											{
												OFFSET 0.019531 0.000000 0.000000 
											}
										}
									}
								}
								JOINT LeftHandRing1
								{
									OFFSET 0.080666 0.002509 -0.014652 
									CHANNELS 3 Zrotation Xrotation Yrotation
									JOINT LeftHandRing2
									{
										OFFSET 0.042541 0.000000 0.000000 
										CHANNELS 3 Zrotation Xrotation Yrotation
										JOINT LeftHandRing3
										{
											OFFSET 0.029009 0.000000 0.000000 
											CHANNELS 3 Zrotation Xrotation Yrotation
											End Site
											{
												OFFSET 0.015625 0.000000 0.000000 
											}
										}
									}
								}
								JOINT LeftHandPinky1
								{
									OFFSET 0.078227 -0.000612 -0.030993 
									CHANNELS 3 Zrotation Xrotation Yrotation
									JOINT LeftHandPinky2
									{
										OFFSET 0.028721 0.000000 0.000000 
										CHANNELS 3 Zrotation Xrotation Yrotation
										JOINT LeftHandPinky3
										{
											OFFSET 0.021963 0.000000 0.000000 
											CHANNELS 3 Zrotation Xrotation Yrotation
											End Site
											{
												OFFSET 0.022656 0.000000 0.000000 
											}
										}
									}
								}
							}
						}
					}
				}
				JOINT RightShoulder
				{
					OFFSET -0.047970 0.079586 -0.029634 
					CHANNELS 3 Zrotation Xrotation Yrotation
					JOINT RightArm
					{
						OFFSET -0.096274 -0.008695 -0.014012 
						CHANNELS 3 Zrotation Xrotation Yrotation
						JOINT RightForeArm
						{
							OFFSET -0.216305 0.000000 0.000000 
							CHANNELS 3 Xrotation Zrotation Yrotation
							JOINT RightHand
							{
								OFFSET -0.217764 0.000000 0.000000 
								CHANNELS 3 Zrotation Yrotation Xrotation
								JOINT RightHandThumb1
								{
									OFFSET -0.019670 -0.007318 0.019638 
									CHANNELS 3 Zrotation Xrotation Yrotation
									JOINT RightHandThumb2
									{
										OFFSET -0.025498 -0.008492 0.023179 
										CHANNELS 3 Zrotation Xrotation Yrotation
										JOINT RightHandThumb3
										{
											OFFSET -0.034504 -0.010705 0.016680 
											CHANNELS 3 Zrotation Xrotation Yrotation
											End Site
											{
												OFFSET -0.020312 -0.007813 0.007813 
											}
										}
									}
								}
								JOINT RightHandIndex1
								{
									OFFSET -0.081770 0.003825 0.021187 
									CHANNELS 3 Zrotation Xrotation Yrotation
									JOINT RightHandIndex2
									{
										OFFSET -0.042006 0.000000 0.000000 
										CHANNELS 3 Zrotation Xrotation Yrotation
										JOINT RightHandIndex3
										{
											OFFSET -0.026449 0.000000 0.000000 
											CHANNELS 3 Zrotation Xrotation Yrotation
											End Site
											{
												OFFSET -0.020312 0.000000 0.000000 
											}
										}
									}
								}
								JOINT RightHandMiddle1
								{
									OFFSET -0.084059 0.003825 0.003342 
									CHANNELS 3 Zrotation Xrotation Yrotation
									JOINT RightHandMiddle2
									{
										OFFSET -0.043881 0.000000 0.000000 
										CHANNELS 3 Zrotation Xrotation Yrotation
										JOINT RightHandMiddle3
										{
											OFFSET -0.029191 0.000000 0.000000 
											CHANNELS 3 Zrotation Xrotation Yrotation
											End Site
											{
												OFFSET -0.017969 0.000000 0.000000 
											}
										}
									}
								}
								JOINT RightHandRing1
								{
									OFFSET -0.081798 0.003030 -0.015127 
									CHANNELS 3 Zrotation Xrotation Yrotation
									JOINT RightHandRing2
									{
										OFFSET -0.042198 0.000000 0.000000 
										CHANNELS 3 Zrotation Xrotation Yrotation
										JOINT RightHandRing3
										{
											OFFSET -0.026497 0.000000 0.000000 
											CHANNELS 3 Zrotation Xrotation Yrotation
											End Site
											{
												OFFSET -0.017188 0.000000 0.000000 
											}
										}
									}
								}
								JOINT RightHandPinky1
								{
									OFFSET -0.077902 -0.000930 -0.030891 
									CHANNELS 3 Zrotation Xrotation Yrotation
									JOINT RightHandPinky2
									{
										OFFSET -0.028538 0.000000 0.000000 
										CHANNELS 3 Zrotation Xrotation Yrotation
										JOINT RightHandPinky3
										{
											OFFSET -0.021734 0.000000 0.000000 
											CHANNELS 3 Zrotation Xrotation Yrotation
											End Site
											{
												OFFSET -0.022656 0.000000 0.000000 
											}
										}
									}
								}
							}
						}
					}
				}
			}
		}
	}
	JOINT LeftUpLeg
	{
		OFFSET 0.075264 -0.025573 0.000000 
		CHANNELS 3 Xrotation Yrotation Zrotation
		JOINT LeftLeg
		{
			OFFSET 0.000000 -0.326016 -0.013516 
			CHANNELS 3 Xrotation Yrotation Zrotation
			JOINT LeftFoot
			{
				OFFSET 0.000098 -0.306172 -0.006623 
				CHANNELS 3 Xrotation Yrotation Zrotation
				JOINT LeftToeBase
				{
					OFFSET -0.001432 -0.095259 0.064705 
					CHANNELS 3 Xrotation Yrotation Zrotation
					End Site
					{
						OFFSET 0.000000 0.000000 0.079438 
					}
				}
			}
		}
	}
	JOINT RightUpLeg
	{
		OFFSET -0.075264 -0.025573 0.000000 
		CHANNELS 3 Xrotation Yrotation Zrotation
		JOINT RightLeg
		{
			OFFSET 0.000000 -0.326016 -0.013516 
			CHANNELS 3 Xrotation Yrotation Zrotation
			JOINT RightFoot
			{
				OFFSET 0.000098 -0.306172 -0.006623 
				CHANNELS 3 Xrotation Yrotation Zrotation
				JOINT RightToeBase
				{
					OFFSET -0.001432 -0.095259 0.064705 
					CHANNELS 3 Xrotation Yrotation Zrotation
					End Site
					{
						OFFSET 0.000025 0.000000 0.079438 
					}
				}
			}
		}
	}
}
MOTION
Frames: 6
Frame Time: 0.033333
0.000170 0.678641 -0.000454 -4.381100 9.278700 -9.711100 2.144300 3.503100 5.903200 8.233900 -0.577000 1.416000 5.228100 -0.735000 5.836100 -10.363700 1.367700 -3.929500 -0.000000 0.000000 -0.000000 -20.805901 3.301400 1.818000 -14.374700 0.716400 -9.997200 -62.713001 -1.020500 30.699499 -0.000000 0.000000 -83.346802 -11.041900 -3.028800 19.078600 5.249800 18.090200 5.442800 3.616900 -1.948900 5.375500 0.537200 -4.645700 -12.059100 -85.525597 -3.012200 0.501800 -56.981800 -0.689100 0.295200 -59.231499 -0.014000 0.088400 -82.544296 -3.027600 0.604200 -68.211800 -0.663500 0.220300 -55.075901 0.021800 -0.289800 -84.074699 -2.882700 -0.592200 -66.991997 0.310500 0.309600 -64.866203 0.651100 0.150100 -96.262100 -3.296700 -0.295600 -66.799301 -0.206300 -0.486900 -59.532600 -0.363700 0.500000 9.519400 -3.467100 12.473500 36.364899 17.256901 17.869499 0.000000 0.000000 83.223999 -19.730000 10.277600 -7.625400 -3.352900 10.342300 -15.010100 0.440500 -4.290200 -8.003200 1.455200 -14.735200 16.051701 58.774502 -0.642500 -1.497300 58.969002 -1.200600 -1.368800 49.484600 -0.459300 0.375600 62.943001 -3.457000 -1.522700 64.800598 -1.426400 -1.263400 57.126202 -0.575600 -0.946200 77.326698 -3.948000 -2.111200 70.572601 -0.475700 -1.451100 54.543301 -0.012800 0.779100 80.085297 -5.327900 -3.246500 84.780701 -1.282100 -0.604800 51.626900 -0.951800 1.512600 -63.363602 -7.164400 8.721500 134.549194 -0.911500 0.170900 14.333400 0.245200 -2.179900 0.095000 0.000000 -0.000000 -21.881500 -6.949700 16.877600 46.330898 0.876600 -5.308600 -32.238400 1.500500 -4.396200 -3.122600 0.000000 -0.000000 
0.001041 0.692913 0.094541 -6.458500 11.712900 -7.869500 0.794100 4.326600 4.376500 6.480100 1.517800 -0.629000 3.366500 1.420400 3.986000 -4.977900 0.258600 -3.113000 -0.000000 0.000000 -0.000000 -24.780600 0.288800 1.681000 -11.387500 -0.604600 -6.709700 -62.303902 5.322700 33.706902 -0.000000 -0.000000 -80.163002 -8.412100 -3.689200 9.115400 5.249800 18.090200 5.442800 8.352200 -2.701000 2.043300 2.294500 -2.071500 -15.078000 -74.886902 -2.934900 1.147400 -51.640301 -0.647700 0.372000 -51.482201 -0.022800 0.112500 -70.339996 -2.807400 0.769800 -60.572899 -0.627500 0.319300 -47.439301 0.011900 -0.281800 -73.741501 -2.785900 -0.197200 -59.339298 0.276300 0.294400 -57.217800 0.594100 0.096500 -85.872299 -3.255300 0.278200 -59.202801 -0.203200 -0.442300 -51.936100 -0.341700 0.563300 8.265300 -3.494100 17.131701 38.365200 11.179400 29.664200 -0.000000 0.000000 72.936203 -18.518101 7.668500 -6.890900 -3.139600 9.581100 -13.022100 0.440500 -4.290200 -8.003200 1.455200 -14.735200 16.051701 60.582001 0.212900 -0.346400 58.564301 -1.190900 -1.369400 49.080002 -0.453400 0.380600 66.648300 -3.600100 -0.329500 64.333603 -1.415300 -1.266500 56.646801 -0.567700 -0.942200 79.023697 -3.973700 -1.501500 70.146797 -0.469100 -1.447000 54.111401 -0.009000 0.787000 82.175697 -4.134100 -1.282900 84.634201 -1.279300 -0.605400 51.480301 -0.948900 1.513300 -73.460098 -5.809900 8.382500 125.620102 -5.906200 0.254700 9.436500 0.659900 -1.811600 -0.517700 -0.000000 -0.000000 -11.153300 -8.664500 12.204900 35.824501 5.601800 -5.465800 -27.863300 2.715000 1.163200 -5.726400 0.003800 -0.717700 
0.003437 0.708720 0.189119 -8.016700 13.633100 -4.951800 0.027200 5.640200 2.296000 5.134300 4.276000 -3.106600 1.925100 4.254300 1.717500 -1.906300 -0.962700 -2.046900 -0.000000 0.000000 -0.000000 -25.773600 -4.725800 1.665100 -8.536100 -1.231900 -5.115400 -59.323101 11.177900 38.350700 0.000000 0.000000 -83.494003 -8.100300 -0.186900 -1.771500 5.249800 18.090200 5.442800 12.725200 -3.893300 -0.779200 2.726500 0.440900 -17.428400 -65.991798 -2.789900 1.661600 -48.500900 -0.620100 0.415300 -45.729599 -0.027200 0.131100 -59.627201 -2.470300 0.799900 -54.972900 -0.592900 0.388400 -41.841599 0.005300 -0.275100 -65.196999 -2.628900 0.056400 -53.721802 0.250000 0.286200 -51.603901 0.547900 0.062300 -77.148499 -3.133100 0.687100 -53.681999 -0.197200 -0.410300 -46.415199 -0.320500 0.607200 6.144600 -3.576000 19.178200 41.614899 3.775200 35.669899 -0.000000 0.000000 68.738998 -10.661100 1.547200 -8.043500 -2.893700 8.740200 -10.765500 0.440500 -4.290200 -8.003200 1.455200 -14.735200 16.051701 61.583900 2.181300 2.031900 57.972198 -1.176800 -1.370200 48.487900 -0.444800 0.388200 71.005203 -3.736300 2.455900 64.855598 -1.427800 -1.263100 57.008301 -0.573600 -0.945300 80.364799 -3.949500 -0.196200 70.575104 -0.475800 -1.451100 54.489201 -0.012300 0.780100 83.862999 -4.068900 3.136700 84.605103 -1.278800 -0.605500 51.153000 -0.942300 1.514900 -77.008797 -2.932600 7.563200 109.414597 -5.167400 -0.579700 4.261700 1.104800 -0.573500 -0.259800 0.000000 0.000000 -1.766900 -13.611800 5.593600 23.491800 7.205100 -3.861000 -13.754200 9.518300 4.765200 -13.847400 0.070700 -3.072300 
0.006725 0.721209 0.283477 -7.471900 15.736800 -1.749300 -0.439600 6.872000 0.483800 3.990900 6.640500 -5.398500 0.720200 6.700800 -0.424700 -1.268700 -2.165600 -1.123200 -0.000000 0.000000 -0.000000 -24.514700 -10.436500 1.261900 -7.774300 -1.176800 -6.076800 -53.635201 14.597000 43.433701 0.000000 -0.000100 -91.662201 -7.664900 5.450300 -11.370200 5.249800 18.090200 5.442800 16.355900 -5.607200 -2.966100 2.330400 2.776800 -18.831699 -58.942600 -2.625700 2.078400 -47.218201 -0.608200 0.432500 -41.820000 -0.029100 0.143900 -50.766499 -2.034600 0.753400 -51.219799 -0.566000 0.432600 -38.090801 0.001200 -0.270300 -58.502899 -2.459500 0.207100 -49.952801 0.232000 0.282200 -47.836601 0.515200 0.042000 -70.275902 -2.982300 0.997100 -50.007999 -0.191600 -0.389400 -42.741199 -0.304200 0.635100 3.924100 -3.777200 19.595600 43.895302 -2.455300 35.471699 -0.000000 -0.000000 71.811996 -4.988600 -2.150700 -7.393600 -2.608400 7.936700 -8.563400 0.440500 -4.290100 -8.003200 1.455200 -14.735200 16.051701 60.503300 4.775900 4.973000 57.472801 -1.164800 -1.370800 47.988400 -0.437600 0.394600 73.647797 -3.791700 5.476700 66.605698 -1.469500 -1.250800 58.364399 -0.596000 -0.956300 80.712402 -3.891400 1.128600 71.738602 -0.494000 -1.462000 55.544800 -0.021800 0.760800 84.432999 -3.966500 7.550600 84.536697 -1.277500 -0.605700 50.219898 -0.923800 1.519800 -76.933601 -0.423100 4.662700 89.953499 -3.132400 -1.514600 -0.467000 1.150900 -0.349200 0.268900 -0.000000 0.000000 1.579400 -17.175301 0.128200 19.190500 7.103600 -2.612700 -0.624900 12.581300 7.714300 -12.937000 0.068000 -3.001700 
0.008455 0.730380 0.377401 -4.842500 17.294600 0.305100 -0.676800 7.572800 -0.176900 3.237100 7.884600 -6.697100 -0.052700 8.012600 -1.657400 -0.519300 -2.960000 -1.051400 -0.000000 0.000000 -0.000000 -24.481701 -15.158100 0.346100 -9.245500 -0.926600 -6.088500 -46.671902 16.672800 44.256302 -0.000000 -0.000000 -98.909302 -5.590700 10.191100 -17.410000 5.249800 18.090200 5.442800 18.887800 -7.678500 -4.458700 1.480900 4.722900 -19.177099 -53.841400 -2.481700 2.428200 -47.446301 -0.610300 0.429500 -39.600201 -0.029800 0.151300 -44.117199 -1.556300 0.695400 -49.121799 -0.549700 0.456600 -35.994701 -0.000900 -0.267500 -53.720600 -2.315800 0.304100 -47.845299 0.221800 0.280400 -45.728199 0.496300 0.031500 -65.438797 -2.872900 1.269200 -47.952099 -0.187800 -0.377800 -40.685299 -0.294200 0.650300 3.104100 -3.888200 16.422300 44.702499 -5.957000 35.699402 0.000000 -0.000000 76.679604 -3.277800 -2.239100 -1.828000 -2.298000 7.282400 -6.737100 0.440500 -4.290200 -8.003200 1.455100 -14.735200 16.051701 57.850300 5.056900 5.056600 57.408100 -1.163300 -1.370900 47.923698 -0.436700 0.395400 70.581299 -3.684800 5.020100 66.598297 -1.469300 -1.250800 58.409901 -0.596700 -0.956600 78.729897 -3.855400 0.590300 71.457100 -0.489600 -1.459400 55.305302 -0.019600 0.765200 82.029503 -3.923000 6.691700 83.411201 -1.255900 -0.609600 49.267101 -0.905000 1.525100 -73.996300 0.664400 0.631100 67.569298 -2.910400 -1.353800 -4.683500 2.405800 -1.735600 0.842500 -0.000000 0.000000 -0.827000 -14.282900 -1.919600 28.531500 1.104000 -3.538300 4.478900 5.877200 16.449100 2.178600 -0.000000 -0.000000 
0.006949 0.734477 0.470243 -1.775200 16.876801 0.290600 -0.296900 7.545200 0.350200 3.407800 8.003300 -6.503800 0.102600 8.157700 -1.441400 -0.703300 -3.183600 -1.552300 -0.000000 0.000000 -0.000000 -25.318800 -17.225700 -1.014900 -10.271100 -0.817900 -5.616300 -43.929401 15.497700 40.128300 -0.000000 -0.000000 -100.984001 -0.956800 13.996500 -19.072100 5.249800 18.090200 5.442800 20.049601 -9.744100 -5.259300 0.583500 4.828700 -18.414301 -50.789700 -2.386800 2.726000 -48.838402 -0.623200 0.410700 -38.917301 -0.030000 0.153500 -40.037800 -1.126900 0.673800 -48.486698 -0.544600 0.463700 -35.361301 -0.001500 -0.266600 -50.911701 -2.224700 0.389900 -47.210602 0.218700 0.280000 -45.091202 0.490600 0.028500 -62.819599 -2.895900 1.544100 -47.285500 -0.186500 -0.374100 -40.018700 -0.290900 0.655200 3.193200 -3.899500 14.083200 44.418301 -7.722400 34.835701 0.000000 0.000000 80.251198 -5.420900 5.254700 1.583100 -1.992200 6.882400 -5.608300 0.440500 -4.290200 -8.003200 1.455200 -14.735200 16.051701 58.040298 3.456100 3.192000 57.532200 -1.166200 -1.370700 48.047901 -0.438500 0.393800 67.368103 -3.589100 2.777300 65.068199 -1.432900 -1.261600 57.169998 -0.576300 -0.946600 77.689301 -3.883700 -0.627600 70.040298 -0.467500 -1.446000 53.970901 -0.007700 0.789500 79.215302 -3.937100 2.961500 81.698601 -1.223100 -0.614700 48.229401 -0.884600 1.531200 -64.523201 2.064000 -1.613300 41.190800 -2.991000 -0.776100 -4.480800 0.747300 -4.321100 0.441600 -0.000000 -0.000000 -3.208200 -11.022600 0.194300 44.187901 -2.084300 -6.059800 5.386000 -1.012900 11.757300 -0.186100 -0.000000 0.000000 
